<svg width="61" height="60" viewBox="0 0 61 60" fill="none" xmlns="http://www.w3.org/2000/svg">
<path d="M42.9524 21.1523H34.7493V23.4961H42.9524V21.1523Z" fill="white"/>
<path d="M39.0894 25.0662C31.5088 25.0662 31.5165 32.6047 31.5165 32.6047C31.5165 32.6047 30.9955 40.0653 39.0894 40.0653C39.0894 40.0653 45.8372 40.4883 45.8372 34.7461H42.3669C42.3669 34.7461 42.4811 36.9949 39.2056 36.9949C39.2056 36.9949 35.7372 37.207 35.7372 33.6914H45.9524C45.9524 33.6914 47.0692 25.0662 39.0894 25.0662ZM42.1722 30.9961H35.6978C35.6978 30.9961 36.121 27.9566 39.1662 27.9566C42.2134 27.9566 42.1722 30.9961 42.1722 30.9961Z" fill="white"/>
<path d="M27.0455 28.9811C27.0455 28.9811 30.0533 28.7561 30.0533 25.2292C30.0533 21.7023 27.5933 19.9805 24.4771 19.9805H18.7377H18.5698H14.1243V39.668H18.5698H18.7377H24.4771C24.4771 39.668 30.7375 39.8797 30.7375 33.863C30.7375 33.863 31.0109 28.9811 27.0455 28.9811ZM18.6946 23.4961H23.7382H24.477C24.477 23.4961 25.871 23.5236 25.871 25.5739C25.871 27.6233 25.0498 27.9492 24.121 27.9492H18.6946V23.4961ZM24.1863 36.1723C24.0347 36.1741 23.9052 36.1523 23.8188 36.1523H18.6946V30.9961H24.4771C24.4771 30.9961 26.5533 30.9217 26.5533 33.6571C26.5533 35.9617 25.0037 36.153 24.1863 36.1723Z" fill="white"/>
<path d="M29.8274 1.93359C14.3591 1.93359 1.81958 14.4731 1.81958 29.9414C1.81958 45.4097 14.3591 57.9492 29.8274 57.9492C45.2957 57.9492 57.8352 45.4097 57.8352 29.9414C57.8352 14.4731 45.2957 1.93359 29.8274 1.93359ZM48.389 48.503C43.431 53.4609 36.8391 56.1914 29.8274 56.1914C22.8157 56.1914 16.2238 53.4609 11.2658 48.503C6.30786 43.545 3.57739 36.9531 3.57739 29.9414C3.57739 22.9297 6.30786 16.3378 11.2658 11.3798C16.2238 6.42188 22.8157 3.69141 29.8274 3.69141C36.8391 3.69141 43.431 6.42188 48.389 11.3798C53.3469 16.3378 56.0774 22.9297 56.0774 29.9414C56.0774 36.9531 53.3469 43.545 48.389 48.503Z" fill="white"/>
</svg>
