<svg width="61" height="60" viewBox="0 0 61 60" fill="none" xmlns="http://www.w3.org/2000/svg">
<path d="M29.8274 1.93359C14.3591 1.93359 1.81958 14.4731 1.81958 29.9414C1.81958 45.4097 14.3591 57.9492 29.8274 57.9492C45.2957 57.9492 57.8352 45.4097 57.8352 29.9414C57.8352 14.4731 45.2957 1.93359 29.8274 1.93359ZM48.389 48.503C43.431 53.4609 36.8391 56.1914 29.8274 56.1914C22.8157 56.1914 16.2238 53.4609 11.2658 48.503C6.30786 43.545 3.57739 36.9531 3.57739 29.9414C3.57739 22.9297 6.30786 16.3378 11.2658 11.3798C16.2238 6.42188 22.8157 3.69141 29.8274 3.69141C36.8391 3.69141 43.431 6.42188 48.389 11.3798C53.3469 16.3378 56.0774 22.9297 56.0774 29.9414C56.0774 36.9531 53.3469 43.545 48.389 48.503Z" fill="white"/>
<path d="M29.7688 13.8521C20.8662 13.8521 13.6481 21.0702 13.6481 29.9728C13.6481 37.0964 18.2667 43.1378 24.673 45.2689C25.4789 45.4166 25.773 44.9187 25.773 44.4936C25.773 44.1098 25.7583 42.8387 25.7504 41.4927C21.2677 42.4668 20.3201 39.5918 20.3201 39.5918C19.5861 37.7302 18.5303 37.2343 18.5303 37.2343C17.0652 36.2347 18.6414 36.2543 18.6414 36.2543C20.26 36.3664 21.112 37.9152 21.112 37.9152C22.5505 40.3789 24.8864 39.6666 25.8034 39.2534C25.9499 38.2144 26.3671 37.502 26.8267 37.1005C23.2481 36.6932 19.4837 35.3098 19.4837 29.1327C19.4837 27.3715 20.1124 25.935 21.1416 24.8064C20.9773 24.397 20.4223 22.7569 21.3009 20.5382C21.3009 20.5382 22.6528 20.1053 25.7345 22.1912C27.0195 21.832 28.3979 21.655 29.7686 21.6491C31.1381 21.6551 32.5177 21.834 33.8046 22.1932C36.8804 20.1053 38.2343 20.5402 38.2343 20.5402C39.1159 22.7609 38.561 24.3991 38.3957 24.8065C39.4288 25.935 40.0526 27.3716 40.0526 29.1328C40.0526 35.3257 36.2822 36.6894 32.6909 37.0889C33.2714 37.5887 33.785 38.5687 33.785 40.0721C33.785 42.227 33.7634 43.9645 33.7634 44.4959C33.7634 44.9249 34.0566 45.4267 34.8732 45.2692C41.2747 43.134 45.8893 37.0928 45.8893 29.973C45.8895 21.0702 38.6714 13.8521 29.7688 13.8521Z" fill="white"/>
</svg>
