<svg width="61" height="60" viewBox="0 0 61 60" fill="none" xmlns="http://www.w3.org/2000/svg">
<path d="M43.8899 43.3008V32.8857C43.8899 27.5098 40.9733 25.0157 37.1903 25.0157C34.1408 25.0157 32.7571 26.7343 31.9368 27.9288V25.4883H26.1946V43.3008H31.9368V33.1477C31.9368 32.6237 32.008 32.1102 32.1653 31.733C32.5845 30.685 33.5793 29.6057 35.1722 29.6057C37.2576 29.6057 38.1477 31.209 38.1477 33.5564V43.3008H43.8899Z" fill="white"/>
<path d="M20.1224 16.5274C18.236 16.5274 17.01 17.8515 17.01 19.6016C17.01 21.3203 18.2046 22.6758 20.049 22.6758H20.0909C22.0086 22.6758 23.2033 21.3203 23.2033 19.6016C23.1614 17.8411 22.0088 16.5274 20.1224 16.5274Z" fill="white"/>
<path d="M22.7961 25.4883H17.054V43.3008H22.7961V25.4883Z" fill="white"/>
<path d="M29.8274 1.93359C14.3591 1.93359 1.81958 14.4731 1.81958 29.9414C1.81958 45.4097 14.3591 57.9492 29.8274 57.9492C45.2957 57.9492 57.8352 45.4097 57.8352 29.9414C57.8352 14.4731 45.2957 1.93359 29.8274 1.93359ZM48.389 48.503C43.431 53.4609 36.8391 56.1914 29.8274 56.1914C22.8157 56.1914 16.2238 53.4609 11.2658 48.503C6.30786 43.545 3.57739 36.9531 3.57739 29.9414C3.57739 22.9297 6.30786 16.3378 11.2658 11.3798C16.2238 6.42188 22.8157 3.69141 29.8274 3.69141C36.8391 3.69141 43.431 6.42188 48.389 11.3798C53.3469 16.3378 56.0774 22.9297 56.0774 29.9414C56.0774 36.9531 53.3469 43.545 48.389 48.503Z" fill="white"/>
</svg>
